<svg viewBox="0 0 24 24" fill="none" xmlns="http://www.w3.org/2000/svg">
<path fill-rule="evenodd" clip-rule="evenodd" d="M3 16.25C3.41421 16.25 3.75 16.5858 3.75 17C3.75 18.7948 5.20521 20.25 7 20.25H17C18.7948 20.25 20.25 18.7948 20.25 17C20.25 16.5858 20.5858 16.25 21 16.25C21.4142 16.25 21.75 16.5858 21.75 17C21.75 19.6232 19.6232 21.75 17 21.75H7C4.37679 21.75 2.25 19.6232 2.25 17C2.25 16.5858 2.58579 16.25 3 16.25Z" fill="currentColor"/>
<path d="M12.75 3C12.75 2.58579 12.4142 2.25 12 2.25C11.5858 2.25 11.25 2.58579 11.25 3V15.1911L7.52938 11.4697C7.23652 11.1768 6.76165 11.1768 6.46872 11.4696C6.1758 11.7625 6.17575 12.2374 6.46862 12.5303L11.4686 17.5313C11.6093 17.672 11.8 17.751 11.999 17.751C12.1979 17.751 12.3887 17.672 12.5293 17.5313L17.5303 12.5303C17.8232 12.2374 17.8232 11.7626 17.5303 11.4697C17.2374 11.1768 16.7626 11.1768 16.4697 11.4697L12.75 15.1893V3Z" fill="currentColor"/>
</svg>
