<svg viewBox="0 0 24 24" fill="none" xmlns="http://www.w3.org/2000/svg">
<path fill-rule="evenodd" clip-rule="evenodd" d="M6.99792 9.74878C6.3071 9.74878 5.74709 10.3088 5.74709 10.9996V19.0029C5.74709 19.6938 6.3071 20.2538 6.99792 20.2538H17.0021C17.6929 20.2538 18.2529 19.6938 18.2529 19.0029V10.9996C18.2529 10.3088 17.6929 9.74878 17.0021 9.74878H15.0013C14.587 9.74878 14.2513 9.41299 14.2513 8.99878C14.2513 8.58456 14.587 8.24878 15.0013 8.24878H17.0021C18.5213 8.24878 19.7529 9.48037 19.7529 10.9996V19.0029C19.7529 20.5222 18.5213 21.7538 17.0021 21.7538H6.99792C5.47868 21.7538 4.24709 20.5222 4.24709 19.0029V10.9996C4.24709 9.48037 5.47868 8.24878 6.99792 8.24878H8.99875C9.41297 8.24878 9.74875 8.58456 9.74875 8.99878C9.74875 9.41299 9.41297 9.74878 8.99875 9.74878H6.99792Z" fill="currentColor"/>
<path d="M12 15.7513C12.4142 15.7513 12.75 15.4155 12.75 15.0013V4.80694L14.4709 6.52786C14.7638 6.82075 15.2387 6.82075 15.5316 6.52786C15.8245 6.23496 15.8245 5.76009 15.5316 5.4672L12.5303 2.46595C12.2374 2.17305 11.7626 2.17305 11.4697 2.46595L8.46842 5.4672C8.17553 5.76009 8.17553 6.23496 8.46842 6.52786C8.76132 6.82075 9.23619 6.82075 9.52908 6.52786L11.25 4.80694V15.0013C11.25 15.4155 11.5858 15.7513 12 15.7513Z" fill="currentColor"/>
</svg>
